<?xml version="1.0" encoding="UTF-8" standalone="no"?>
<svg
   xmlns:dc="http://purl.org/dc/elements/1.1/"
   xmlns:cc="http://creativecommons.org/ns#"
   xmlns:rdf="http://www.w3.org/1999/02/22-rdf-syntax-ns#"
   xmlns:svg="http://www.w3.org/2000/svg"
   xmlns="http://www.w3.org/2000/svg"
   xmlns:sodipodi="http://sodipodi.sourceforge.net/DTD/sodipodi-0.dtd"
   xmlns:inkscape="http://www.inkscape.org/namespaces/inkscape"
   width="256"
   height="256"
   viewBox="0 0 100 100"
   version="1.1"
   id="svg6"
   sodipodi:docname="favicon.svg"
   inkscape:version="1.0.2-2 (e86c870879, 2021-01-15)">
  <metadata
     id="metadata12">
    <rdf:RDF>
      <cc:Work
         rdf:about="">
        <dc:format>image/svg+xml</dc:format>
        <dc:type
           rdf:resource="http://purl.org/dc/dcmitype/StillImage" />
        <dc:title></dc:title>
      </cc:Work>
    </rdf:RDF>
  </metadata>
  <defs
     id="defs10" />
  <sodipodi:namedview
     pagecolor="#ffffff"
     bordercolor="#666666"
     borderopacity="1"
     objecttolerance="10"
     gridtolerance="10"
     guidetolerance="10"
     inkscape:pageopacity="0"
     inkscape:pageshadow="2"
     inkscape:window-width="1920"
     inkscape:window-height="1017"
     id="namedview8"
     showgrid="false"
     inkscape:zoom="0.83007813"
     inkscape:cx="385.67963"
     inkscape:cy="202.15386"
     inkscape:window-x="-8"
     inkscape:window-y="-8"
     inkscape:window-maximized="1"
     inkscape:current-layer="svg6" />
  <rect
     width="100"
     height="100"
     rx="0"
     fill="#ff690f"
     id="rect2" />
  <g
     id="g935"
     transform="matrix(0.14267074,0,0,0.14267074,15.056103,15.056039)"
     style="fill:#ffffff;fill-opacity:1">
    <path
       d="m 485.014,392.413 c -36.617,-51.589 -148.913,-211.11 -148.913,-211.11 -2.688,-3.828 -6.929,-6.304 -11.584,-6.778 -4.682,-0.451 -9.3,1.092 -12.719,4.287 l -29.426,27.545 -69.05,-128.155 c -2.8,-5.172 -8.161,-8.433 -14.046,-8.512 -5.778,-0.26 -11.345,3.03 -14.272,8.125 L 2.151,395.902 c -2.879,5.016 -2.863,11.185 0.016,16.192 2.911,5 8.26,8.085 14.034,8.085 h 457.138 c 0.111,-0.016 0.222,-0.008 0.313,0 8.959,0 16.202,-7.253 16.202,-16.2 0,-4.533 -2.415,-8.149 -4.84,-11.566 z m -195.839,-148.029 31.169,-29.197 61.973,87.856 -52.577,-54.766 c -0.854,-0.879 -2.025,-1.386 -3.26,-1.401 -1.199,-0.008 -2.387,0.474 -3.256,1.338 l -37.499,37.45 c -1.299,1.304 -3.261,1.694 -4.968,0.981 -1.708,-0.705 -2.816,-2.373 -2.8,-4.217 l 0.143,-34.056 c 4.05,0 8.037,-1.162 11.075,-3.988 z m -90.581,-125.189 40.203,74.591 -30.189,26.628 c -0.933,0.832 -2.184,1.235 -3.415,1.124 -1.251,-0.111 -2.406,-0.736 -3.165,-1.717 l -19.351,-24.556 c -0.917,-1.162 -2.343,-1.811 -3.812,-1.731 -1.489,0.079 -2.848,0.877 -3.622,2.128 l -29.255,46.65 c -0.917,1.447 -2.565,2.27 -4.273,2.111 -1.708,-0.157 -3.197,-1.265 -3.828,-2.855 l -3.923,-9.936 z"
       id="path880"
       style="fill:#ffffff;fill-opacity:1" />
    <g
       id="g882"
       style="fill:#ffffff;fill-opacity:1">
</g>
    <g
       id="g884"
       style="fill:#ffffff;fill-opacity:1">
</g>
    <g
       id="g886"
       style="fill:#ffffff;fill-opacity:1">
</g>
    <g
       id="g888"
       style="fill:#ffffff;fill-opacity:1">
</g>
    <g
       id="g890"
       style="fill:#ffffff;fill-opacity:1">
</g>
    <g
       id="g892"
       style="fill:#ffffff;fill-opacity:1">
</g>
    <g
       id="g894"
       style="fill:#ffffff;fill-opacity:1">
</g>
    <g
       id="g896"
       style="fill:#ffffff;fill-opacity:1">
</g>
    <g
       id="g898"
       style="fill:#ffffff;fill-opacity:1">
</g>
    <g
       id="g900"
       style="fill:#ffffff;fill-opacity:1">
</g>
    <g
       id="g902"
       style="fill:#ffffff;fill-opacity:1">
</g>
    <g
       id="g904"
       style="fill:#ffffff;fill-opacity:1">
</g>
    <g
       id="g906"
       style="fill:#ffffff;fill-opacity:1">
</g>
    <g
       id="g908"
       style="fill:#ffffff;fill-opacity:1">
</g>
    <g
       id="g910"
       style="fill:#ffffff;fill-opacity:1">
</g>
  </g>
</svg>
