<!-- Generated by IcoMoon.io -->
<svg version="1.1" xmlns="http://www.w3.org/2000/svg" width="1024" height="1024" viewBox="0 0 1024 1024">
<title></title>
<g id="icomoon-ignore">
</g>
<path fill="#000" d="M512 0c-282.334 0-512 229.688-512 512s229.666 512 512 512 512-229.688 512-512-229.666-512-512-512zM719.080 688.916l-30.16 30.164c-8.334 8.33-21.838 8.33-30.172 0l-176.922-176.922c-7.998-8-12.492-18.848-12.492-30.158v-341.334c0-11.784 9.552-21.334 21.334-21.334h42.666c11.782 0 21.334 9.55 21.334 21.334v323.666l164.414 164.414c8.332 8.332 8.332 21.84-0.002 30.17z"></path>
</svg>
