<!-- Generated by IcoMoon.io -->
<svg version="1.1" xmlns="http://www.w3.org/2000/svg" width="1024" height="1024" viewBox="0 0 1024 1024">
<title></title>
<g id="icomoon-ignore">
</g>
<path fill="#000" d="M511.999 0c-196.262 0-355.937 159.675-355.937 355.937 0 246.682 356.288 668.063 356.288 668.063s355.587-433.513 355.587-668.063c0-196.262-159.668-355.937-355.937-355.937zM619.393 460.156c-29.613 29.606-68.5 44.413-107.394 44.413-38.887 0-77.788-14.806-107.388-44.413-59.219-59.213-59.219-155.563 0-214.781 28.675-28.688 66.819-44.487 107.388-44.487s78.706 15.806 107.394 44.487c59.219 59.219 59.219 155.569 0 214.781z"></path>
</svg>
