<!-- Generated by IcoMoon.io -->
<svg version="1.1" xmlns="http://www.w3.org/2000/svg" width="1024" height="1024" viewBox="0 0 1024 1024">
<title></title>
<g id="icomoon-ignore">
</g>
<path fill="#000" d="M295.108 23.997c-149.733 0-271.112 121.382-271.112 271.112v0 433.78c0 149.733 121.382 271.112 271.112 271.112v0h433.78c149.733 0 271.112-121.382 271.112-271.112v0-433.78c0-149.733-121.382-271.112-271.112-271.112v0zM837.335 132.442c29.823 0 54.223 24.4 54.223 54.223s-24.4 54.223-54.223 54.223-54.223-24.4-54.223-54.223 24.4-54.223 54.223-54.223zM512 240.888c149.733 0 271.112 121.382 271.112 271.112s-121.382 271.112-271.112 271.112v0c-149.733 0-271.112-121.382-271.112-271.112s121.382-271.112 271.112-271.112v0zM512 349.332c-89.846 0.031-162.668 72.873-162.668 162.723 0 89.868 72.853 162.723 162.723 162.723 0.018 0 0.039 0 0.057 0h-0.002c89.846-0.031 162.668-72.873 162.668-162.723 0-89.868-72.853-162.723-162.723-162.723-0.018 0-0.039 0-0.057 0h0.002z"></path>
</svg>
