<!-- Generated by IcoMoon.io -->
<svg version="1.1" xmlns="http://www.w3.org/2000/svg" width="1024" height="1024" viewBox="0 0 1024 1024">
<title></title>
<g id="icomoon-ignore">
</g>
<path fill="#000" d="M424.054 599.981c-97.739-97.739-119.808-195.478-124.787-234.637-1.391-10.828 2.335-21.686 10.081-29.378l79.095-79.060c11.635-11.628 13.7-29.749 4.979-43.697l-125.934-195.549c-9.648-15.444-29.459-21.018-45.745-12.871l-202.169 95.214c-13.17 6.485-20.916 20.477-19.421 35.081 10.593 100.634 54.466 348.019 297.578 591.148s490.461 286.985 591.148 297.578c14.603 1.495 28.596-6.251 35.081-19.421l95.214-202.169c8.117-16.251 2.58-36.008-12.8-45.674l-195.549-125.899c-13.939-8.73-32.060-6.68-43.697 4.943l-79.060 79.095c-7.692 7.746-18.551 11.472-29.378 10.081-39.159-4.979-136.898-27.048-234.637-124.787z"></path>
<path fill="#000" d="M812.168 547.315c-19.501 0-35.31-15.809-35.31-35.31-0.165-146.192-118.636-264.662-264.828-264.828-19.501 0-35.31-15.809-35.31-35.31s15.809-35.31 35.31-35.31c185.178 0.204 335.244 150.27 335.448 335.448 0 19.501-15.809 35.31-35.31 35.31z"></path>
<path fill="#000" d="M988.72 547.315c-19.501 0-35.31-15.809-35.31-35.31-0.272-243.654-197.725-441.107-441.379-441.379-19.501 0-35.31-15.809-35.31-35.31s15.809-35.31 35.31-35.31c282.641 0.311 511.689 229.359 512 512 0 9.365-3.72 18.346-10.342 24.968s-15.603 10.342-24.968 10.342z"></path>
</svg>
